<?xml version="1.0" standalone="no"?><!DOCTYPE svg PUBLIC "-//W3C//DTD SVG 1.1//EN" "http://www.w3.org/Graphics/SVG/1.1/DTD/svg11.dtd"><svg t="1718634132739" class="icon" viewBox="0 0 1024 1024" version="1.1" xmlns="http://www.w3.org/2000/svg" p-id="12515" xmlns:xlink="http://www.w3.org/1999/xlink" width="256" height="256"><path d="M790.49892 124.991489c-6.502447-39.375932-25.106672-60.960445-68.320854-60.960444H289.268598c-43.259338 0-61.863562 21.629669-68.320854 60.960444h569.551176zM759.341359 193.763902H264.658641c-89.950523 0-135.783746 44.975261-135.783746 134.022666v498.159721c0 89.498964 45.833223 134.067822 135.783746 134.067822h507.642457c77.848745 0 122.824007-44.975261 122.824007-134.067822V327.786568c0-89.092561-45.381664-134.022666-135.783746-134.022666z m66.153371 628.75054c0 44.975261-24.203554 67.914451-54.051594 67.914451H265.968162v-0.045156c-43.259338 0-67.462892-22.894034-67.462892-67.914451V331.71513c0-44.975261 24.203554-68.320854 67.462892-68.320854h492.515235c42.807779 0 67.011333 23.345592 67.011333 68.320854v490.799312z" fill="#bfbfbf" p-id="12516"></path><path d="M629.653658 378.451471l-114.741103 28.583675c-19.191251 4.696212-23.48106 8.624774-23.481061 31.699431v176.55951c0 17.249548-1.580456 20.365304-21.132954 25.829166l-36.034396 9.392424c-35.627993 9.392424-65.792124 30.525378-65.792124 68.90788 0 33.279887 25.061516 57.528597 64.572915 57.528597 55.993297 0 93.969396-40.324205 93.969397-97.085152v-134.293602c0-14.495039 3.115756-18.378445 12.146933-20.365304l91.62129-21.900604c18.784848-5.102615 24.655113-8.986021 24.655113-31.699431V394.888213c0.045156-14.901442-5.057459-21.539357-25.78401-16.436742z" fill="#bfbfbf" p-id="12517"></path></svg>